<svg width="24" height="27" viewBox="0 0 24 27" fill="none" xmlns="http://www.w3.org/2000/svg">
<path fill-rule="evenodd" clip-rule="evenodd" d="M0 6.66667C0 4.89856 0.702379 3.20286 1.95262 1.95262C3.20286 0.702379 4.89856 0 6.66667 0H13.3333C13.687 0 14.0261 0.140476 14.2761 0.390524C14.5262 0.640573 14.6667 0.979711 14.6667 1.33333C14.6667 1.68696 14.5262 2.02609 14.2761 2.27614C14.0261 2.52619 13.687 2.66667 13.3333 2.66667H6.66667C5.6058 2.66667 4.58839 3.08809 3.83824 3.83824C3.08809 4.58839 2.66667 5.6058 2.66667 6.66667V20C2.66667 21.0609 3.08809 22.0783 3.83824 22.8284C4.58839 23.5786 5.6058 24 6.66667 24H13.3333C13.687 24 14.0261 24.1405 14.2761 24.3905C14.5262 24.6406 14.6667 24.9797 14.6667 25.3333C14.6667 25.687 14.5262 26.0261 14.2761 26.2761C14.0261 26.5262 13.687 26.6667 13.3333 26.6667H6.66667C4.89856 26.6667 3.20286 25.9643 1.95262 24.714C0.702379 23.4638 0 21.7681 0 20V6.66667Z" fill="#EE2222"/>
<path fill-rule="evenodd" clip-rule="evenodd" d="M15.2933 7.08794C15.413 6.96006 15.5567 6.85703 15.7163 6.78473C15.8759 6.71244 16.0481 6.67229 16.2232 6.6666C16.3983 6.6609 16.5728 6.68977 16.7367 6.75154C16.9006 6.81331 17.0508 6.90678 17.1786 7.02661L23.5786 13.0266C23.7118 13.1513 23.818 13.3021 23.8906 13.4695C23.9632 13.6369 24.0007 13.8175 24.0007 13.9999C24.0007 14.1824 23.9632 14.363 23.8906 14.5304C23.818 14.6978 23.7118 14.8486 23.5786 14.9733L17.1786 20.9733C17.0508 21.093 16.9006 21.1865 16.7367 21.2482C16.5728 21.3099 16.3983 21.3388 16.2232 21.3331C16.0481 21.3274 15.8759 21.2873 15.7163 21.215C15.5568 21.1427 15.413 21.0398 15.2933 20.9119C15.1735 20.7841 15.0801 20.634 15.0183 20.47C14.9566 20.3061 14.9278 20.1316 14.9335 19.9566C14.9391 19.7815 14.9793 19.6093 15.0515 19.4497C15.1238 19.2901 15.2268 19.1464 15.3546 19.0266L19.2946 15.3333H6.66659C6.31296 15.3333 5.97383 15.1928 5.72378 14.9427C5.47373 14.6927 5.33325 14.3536 5.33325 13.9999C5.33325 13.6463 5.47373 13.3072 5.72378 13.0571C5.97383 12.8071 6.31296 12.6666 6.66659 12.6666H19.2946L15.3546 8.97327C15.2267 8.85354 15.1237 8.70979 15.0514 8.55022C14.9791 8.39065 14.9389 8.2184 14.9332 8.04332C14.9275 7.86823 14.9564 7.69373 15.0182 7.5298C15.08 7.36588 15.1734 7.21573 15.2933 7.08794Z" fill="#EE2222"/>
</svg>
