<svg width="64" height="64" viewBox="0 0 64 64" fill="none" xmlns="http://www.w3.org/2000/svg">
<g clip-path="url(#clip0_2142_64)">
<rect x="64" width="64" height="64" rx="32" transform="rotate(90 64 0)" fill="#CFFFC3"/>
<path d="M22.646 45.8667H41.3537C47.5646 45.8667 52.5783 50.8693 52.5783 57.0667V64.5333H11.4214V57.0667C11.4214 50.8693 16.435 45.8667 22.646 45.8667ZM22.646 23.4667H41.3537V32.8C41.3537 35.2753 40.3682 37.6493 38.614 39.3997C36.8598 41.15 34.4806 42.1333 31.9998 42.1333C29.5191 42.1333 27.1399 41.15 25.3857 39.3997C23.6315 37.6493 22.646 35.2753 22.646 32.8V23.4667ZM41.3537 23.4667C43.4115 23.4667 45.0952 25.1467 45.0952 27.2C45.0952 29.2533 43.4115 30.9333 41.3537 30.9333V23.4667ZM22.646 30.9333C20.5882 30.9333 18.9045 29.2533 18.9045 27.2C18.9045 25.1467 20.5882 23.4667 22.646 23.4667V30.9333Z" fill="#3AC318"/>
<path d="M23.0943 23.9146H21.2236C18.4174 21.6 18.9038 18.0533 18.9038 15.0666C18.9038 12.08 20.7746 14.096 22.6454 14.096C24.5161 14.096 26.3869 15.9626 26.3869 15.9626C23.0943 15.9626 22.6454 12.2293 22.6454 12.2293H33.87C37.9857 12.2293 41.353 15.5893 41.353 19.696H43.2238C43.2238 19.696 44.1592 22.496 42.7748 24.3626L23.1318 23.9146H23.0943Z" fill="#3AC318"/>
</g>
<defs>
<clipPath id="clip0_2142_64">
<rect x="64" width="64" height="64" rx="32" transform="rotate(90 64 0)" fill="white"/>
</clipPath>
</defs>
</svg>
