<svg width="39" height="49" viewBox="0 0 39 49" fill="none" xmlns="http://www.w3.org/2000/svg">
<path d="M21 1.75C21 1.28587 20.8156 0.840752 20.4874 0.512563C20.1593 0.184374 19.7141 0 19.25 0C18.7859 0 18.3408 0.184374 18.0126 0.512563C17.6844 0.840752 17.5 1.28587 17.5 1.75V3.5H9.1875C7.67908 3.5 6.23244 4.09922 5.16583 5.16583C4.09922 6.23244 3.5 7.67908 3.5 9.1875V18.8125C3.5 20.3209 4.09922 21.7676 5.16583 22.8342C6.23244 23.9008 7.67908 24.5 9.1875 24.5H29.3125C30.8209 24.5 32.2676 23.9008 33.3342 22.8342C34.4008 21.7676 35 20.3209 35 18.8125V9.1875C35 7.67908 34.4008 6.23244 33.3342 5.16583C32.2676 4.09922 30.8209 3.5 29.3125 3.5H21V1.75ZM5.6875 29.75C4.17908 29.75 2.73244 30.3492 1.66583 31.4158C0.599217 32.4824 0 33.9291 0 35.4375V36.225C0 40.0225 1.88475 43.3003 5.27275 45.556C8.61 47.7785 13.3595 49 19.25 49C25.1405 49 29.89 47.7785 33.2272 45.556C36.6152 43.2985 38.5 40.0243 38.5 36.225V35.4375C38.5 33.9291 37.9008 32.4824 36.8342 31.4158C35.7676 30.3492 34.3209 29.75 32.8125 29.75H5.6875ZM13.125 17.0625C12.7228 17.0625 12.3246 16.9833 11.953 16.8294C11.5815 16.6755 11.2439 16.4499 10.9595 16.1655C10.6751 15.8811 10.4495 15.5435 10.2956 15.172C10.1417 14.8004 10.0625 14.4022 10.0625 14C10.0625 13.5978 10.1417 13.1996 10.2956 12.828C10.4495 12.4565 10.6751 12.1189 10.9595 11.8345C11.2439 11.5501 11.5815 11.3245 11.953 11.1706C12.3246 11.0167 12.7228 10.9375 13.125 10.9375C13.9372 10.9375 14.7162 11.2602 15.2905 11.8345C15.8648 12.4088 16.1875 13.1878 16.1875 14C16.1875 14.8122 15.8648 15.5912 15.2905 16.1655C14.7162 16.7398 13.9372 17.0625 13.125 17.0625ZM28.4375 14C28.4375 14.8122 28.1148 15.5912 27.5405 16.1655C26.9662 16.7398 26.1872 17.0625 25.375 17.0625C24.5628 17.0625 23.7838 16.7398 23.2095 16.1655C22.6352 15.5912 22.3125 14.8122 22.3125 14C22.3125 13.1878 22.6352 12.4088 23.2095 11.8345C23.7838 11.2602 24.5628 10.9375 25.375 10.9375C26.1872 10.9375 26.9662 11.2602 27.5405 11.8345C28.1148 12.4088 28.4375 13.1878 28.4375 14Z" fill="#0056C1"/>
</svg>
