<svg width="199" height="74" viewBox="0 0 199 74" fill="none" xmlns="http://www.w3.org/2000/svg">
<path d="M13.5868 18.5376H8.7003L7.74684 21.1894H-1.27697e-06L9.17703 1.31577H17.4006L21.0953 21.1894H13.7358L13.5868 18.5376ZM11.7097 10.4034L10.3689 14.0087H13.11L12.8121 10.4034C12.7823 10.0757 12.7525 9.56914 12.7525 9.00302C12.7525 8.28793 12.7823 8.07936 12.8419 7.42386H12.6035C12.3354 8.58588 12.1566 9.24139 11.7097 10.4034ZM33.7884 15.1409H31.0472L30.3023 21.1894H23.0918L25.535 1.31577H33.8182C36.5296 1.31577 38.1683 1.7627 39.5389 2.83534C41.1181 4.08675 42.0418 6.02347 42.0418 8.10915C42.0418 9.98627 41.2373 11.923 39.9561 13.1744C38.4961 14.5748 36.7382 15.1409 33.7884 15.1409ZM32.8349 6.50019H32.09L31.6431 10.1948H32.2986C34.1161 10.1948 35.0398 9.47975 35.0398 8.07936C35.0398 6.91733 34.4737 6.50019 32.8349 6.50019ZM60.3076 1.31577H67.9055L67.9651 21.1894H60.9631L61.3504 15.3197C61.4696 13.2042 61.6484 11.923 62.0357 9.8075L61.7676 9.74791L61.6186 10.314C61.1121 12.3401 60.8737 13.1148 60.0096 15.1707L57.477 21.1894H52.9481L52.1734 14.9025C52.1138 14.545 52.084 14.0385 52.0244 13.4128C51.9648 12.6679 51.935 12.072 51.935 11.625V11.2377C51.935 10.7014 51.935 10.4332 51.9946 9.74791H51.7563L51.6967 10.1948C51.4583 12.0422 51.3093 12.936 50.8624 14.9025L49.4024 21.1894H42.1025L47.8829 1.31577H55.5105L56.2852 7.51324C56.3746 8.22834 56.4342 8.94343 56.4342 9.71811C56.4342 10.612 56.4044 11.0291 56.2554 11.8932H56.5534C56.9109 10.0459 57.328 8.67527 58.3113 6.23203L60.3076 1.31577Z" fill="#0056C1"/>
<path d="M12.3435 41.212H9.6023L8.85741 47.2605H1.64689L4.09013 27.3869H12.3733C15.0847 27.3869 16.7234 27.8338 18.094 28.9064C19.6732 30.1579 20.5969 32.0946 20.5969 34.1803C20.5969 36.0574 19.7924 37.9941 18.5112 39.2455C17.0512 40.6459 15.2933 41.212 12.3435 41.212ZM11.39 32.5713H10.6451L10.1982 36.2659H10.8537C12.6712 36.2659 13.5949 35.5509 13.5949 34.1505C13.5949 32.9884 13.0288 32.5713 11.39 32.5713ZM41.1686 29.6513C43.3437 31.4391 44.4759 34.0313 44.4759 37.1598C44.4759 43.1785 39.798 47.767 33.6005 47.767C27.3137 47.767 22.4868 43.3573 22.4868 37.6067C22.4868 31.588 27.3137 26.9101 33.4515 26.9101C36.3119 26.9101 39.0829 27.8934 41.1686 29.6513ZM33.2728 41.51C35.5372 41.51 37.2058 39.6924 37.2058 37.279C37.2058 35.1635 35.6862 33.495 33.6899 33.495C31.5148 33.495 29.7569 35.3721 29.7569 37.6663C29.7569 39.8712 31.2467 41.51 33.2728 41.51ZM48.7253 27.3869H64.1594L63.5635 32.6905H55.0121L54.7142 34.9549H57.0978C60.1072 34.9549 61.8949 35.67 62.9079 36.6235C63.6528 37.3386 64.3977 38.59 64.3977 40.6161C64.3977 43.0593 63.4741 44.7279 61.9247 45.8005C60.0178 47.1413 57.4852 47.2605 55.7272 47.2605H46.282L48.7253 27.3869ZM53.7905 42.6124H54.4758C55.5484 42.6124 56.1444 42.523 56.5913 42.3144C57.2468 41.9867 57.4554 41.4802 57.4554 40.7949C57.4554 40.4373 57.366 40.0202 56.8892 39.7222C56.5913 39.5435 56.1444 39.4243 55.0419 39.4243H54.1779L53.7905 42.6124ZM85.3964 29.6513C87.5715 31.4391 88.7037 34.0313 88.7037 37.1598C88.7037 43.1785 84.0258 47.767 77.8283 47.767C71.5414 47.767 66.7146 43.3573 66.7146 37.6067C66.7146 31.588 71.5414 26.9101 77.6793 26.9101C80.5397 26.9101 83.3107 27.8934 85.3964 29.6513ZM77.5006 41.51C79.765 41.51 81.4336 39.6924 81.4336 37.279C81.4336 35.1635 79.914 33.495 77.9177 33.495C75.7426 33.495 73.9847 35.3721 73.9847 37.6663C73.9847 39.8712 75.4745 41.51 77.5006 41.51Z" fill="#0056C1"/>
<path d="M9.99613 73.3316L10.3835 70.4117C8.50635 70.4117 5.82475 70.1137 3.82845 68.2366C2.48765 66.9852 1.77255 65.3464 1.77255 63.2011C1.77255 60.9069 2.57703 58.6424 3.94763 57.093C5.40761 55.4543 7.94023 54.0837 12.35 54.0837L12.7075 51.1637H19.8585L19.5009 54.0837C21.8846 54.0837 24.3874 54.7988 25.9367 56.229C26.8008 57.0037 28.1118 58.7318 28.1118 61.8007C28.1118 64.095 27.3371 66.4488 25.907 67.879C24.5066 69.2794 21.9441 70.4117 17.5046 70.4117L17.1471 73.3316H9.99613ZM18.2197 59.5065L17.5344 64.9889H17.6834C19.3221 64.9889 20.1266 64.4227 20.365 64.244C20.9609 63.7672 21.378 62.9628 21.378 61.9199C21.378 60.9665 20.9609 60.4003 20.5438 60.0726C19.8287 59.5363 18.6368 59.5065 18.3687 59.5065H18.2197ZM12.3202 59.5065H12.1414C11.6051 59.5065 10.3537 59.5661 9.54919 60.162C8.92349 60.6387 8.47655 61.5028 8.47655 62.486C8.47655 63.3799 8.8639 64.0354 9.28103 64.3929C9.90674 64.9293 10.8602 64.9889 11.4561 64.9889H11.6349L12.3202 59.5065ZM32.1484 53.458H45.1989L44.5732 58.6424H38.7034L38.4353 60.8175H43.7985L43.2026 65.7337H37.8394L37.5712 67.9982H43.6495L42.994 73.3316H29.7052L32.1484 53.458ZM57.261 52.9813C58.9891 52.9813 60.6874 53.2792 62.4156 53.9049L61.8197 60.9665C60.4789 59.8938 59.2573 59.4171 57.8569 59.4171C55.4732 59.4171 53.4769 61.4432 53.4769 63.8268C53.4769 65.8529 55.1455 67.4023 57.3205 67.4023C58.8103 67.4023 60.0021 66.866 61.2238 65.704L60.3597 72.9443C58.423 73.5998 57.261 73.8381 55.8308 73.8381C50.3186 73.8381 46.2962 69.6668 46.2962 63.9758C46.2962 57.6592 50.9741 52.9813 57.261 52.9813ZM64.4619 53.458H78.6446L77.8699 59.715L74.4434 59.5065L72.7451 73.3316H65.4452L67.1435 59.5065L63.717 59.715L64.4619 53.458Z" fill="#0056C1"/>
<rect x="73.3534" y="1.1894" width="53.0733" height="19.8637" fill="#EFEFEF"/>
<rect x="94.4586" y="27.2605" width="31.9682" height="19.8637" fill="#0056C1"/>
<rect x="84.5268" y="53.3316" width="42.2104" height="19.8637" fill="#EE2222"/>
<path d="M158.08 24.6784H162.535L161.383 34.1894H130.648L147.217 19.2222C149.369 17.2699 151.672 15.1675 151.672 12.7147C151.672 11.7636 151.322 10.9126 150.821 10.4621C150.421 10.1117 149.77 9.81131 148.969 9.81131C148.168 9.81131 147.117 10.1117 146.416 11.313C145.966 12.114 145.665 13.2653 145.665 14.1663H133.451C134.202 8.71004 136.304 5.85675 138.006 4.15479C140.609 1.60185 144.013 8.3254e-08 149.67 8.3254e-08C153.124 8.3254e-08 157.178 0.600694 160.332 3.5541C161.934 5.05583 163.786 7.70888 163.786 11.8136C163.786 15.0173 162.635 17.7204 160.182 20.0731C159.081 21.1243 157.429 22.2757 156.027 23.0766C154.776 23.7774 152.874 24.5783 151.272 25.129L151.422 25.6796C152.273 25.3792 153.474 25.0288 154.475 24.8787C155.426 24.7285 157.229 24.6784 158.08 24.6784ZM181.558 8.3254e-08C190.619 8.3254e-08 197.376 6.95802 197.376 16.3188C197.376 26.931 190.068 35.0404 180.457 35.0404C171.396 35.0404 165.039 28.2826 165.039 18.6715C165.039 7.90911 172.047 8.3254e-08 181.558 8.3254e-08ZM180.407 25.0288C183.16 25.0288 185.363 20.7739 185.363 15.4178C185.363 12.2641 183.961 10.1617 181.909 10.1617C179.356 10.1617 177.053 14.4667 177.053 19.2722C177.053 22.8263 178.304 25.0288 180.407 25.0288Z" fill="#EE2222"/>
<path d="M158.39 63.2646H162.846L161.694 72.7755H130.959L147.528 57.8083C149.68 55.856 151.983 53.7536 151.983 51.3008C151.983 50.3497 151.633 49.4987 151.132 49.0482C150.732 48.6978 150.081 48.3974 149.28 48.3974C148.479 48.3974 147.428 48.6978 146.727 49.8992C146.277 50.7001 145.976 51.8514 145.976 52.7524H133.762C134.513 47.2962 136.615 44.4429 138.317 42.7409C140.92 40.188 144.324 38.5861 149.981 38.5861C153.435 38.5861 157.489 39.1868 160.643 42.1402C162.245 43.6419 164.097 46.295 164.097 50.3997C164.097 53.6034 162.946 56.3065 160.493 58.6592C159.392 59.7105 157.74 60.8618 156.338 61.6627C155.087 62.3635 153.184 63.1644 151.583 63.7151L151.733 64.2657C152.584 63.9654 153.785 63.615 154.786 63.4648C155.737 63.3146 157.539 63.2646 158.39 63.2646ZM179.266 39.387H196.236L186.925 46.7956C186.224 47.3462 185.824 47.6966 185.724 47.7467C185.273 48.0971 184.722 48.3974 184.222 48.6477C183.921 48.7979 183.621 48.898 183.221 49.0482L183.371 49.6989C184.372 49.3986 184.772 49.3485 185.573 49.3485C191.13 49.3485 195.184 53.8037 195.184 59.8106C195.184 67.7697 188.477 73.6265 179.316 73.6265C170.306 73.6265 163.848 67.8699 163.848 59.8606C163.848 56.2064 165.3 52.5522 167.903 49.5988C168.954 48.4475 170.156 47.2962 171.507 46.1448L179.266 39.387ZM179.366 64.2157C181.719 64.2157 183.471 62.3635 183.471 59.8106C183.471 57.608 181.919 56.0562 179.717 56.0562C177.464 56.0562 175.562 58.0085 175.562 60.3612C175.562 62.6639 177.114 64.2157 179.366 64.2157Z" fill="#EE2222"/>
</svg>
