<svg width="547" height="56" viewBox="0 0 547 56" fill="none" xmlns="http://www.w3.org/2000/svg">
<path d="M29.75 5.25C29.75 4.78587 29.5656 4.34075 29.2374 4.01256C28.9093 3.68437 28.4641 3.5 28 3.5C27.5359 3.5 27.0908 3.68437 26.7626 4.01256C26.4344 4.34075 26.25 4.78587 26.25 5.25V7H17.9375C16.4291 7 14.9824 7.59922 13.9158 8.66583C12.8492 9.73244 12.25 11.1791 12.25 12.6875V22.3125C12.25 23.8209 12.8492 25.2676 13.9158 26.3342C14.9824 27.4008 16.4291 28 17.9375 28H38.0625C39.5709 28 41.0176 27.4008 42.0842 26.3342C43.1508 25.2676 43.75 23.8209 43.75 22.3125V12.6875C43.75 11.1791 43.1508 9.73244 42.0842 8.66583C41.0176 7.59922 39.5709 7 38.0625 7H29.75V5.25ZM14.4375 33.25C12.9291 33.25 11.4824 33.8492 10.4158 34.9158C9.34922 35.9824 8.75 37.4291 8.75 38.9375V39.725C8.75 43.5225 10.6347 46.8003 14.0227 49.056C17.36 51.2785 22.1095 52.5 28 52.5C33.8905 52.5 38.64 51.2785 41.9772 49.056C45.3652 46.7985 47.25 43.5243 47.25 39.725V38.9375C47.25 37.4291 46.6508 35.9824 45.5842 34.9158C44.5176 33.8492 43.0709 33.25 41.5625 33.25H14.4375ZM21.875 20.5625C21.4728 20.5625 21.0746 20.4833 20.703 20.3294C20.3315 20.1755 19.9939 19.9499 19.7095 19.6655C19.4251 19.3811 19.1995 19.0435 19.0456 18.672C18.8917 18.3004 18.8125 17.9022 18.8125 17.5C18.8125 17.0978 18.8917 16.6996 19.0456 16.328C19.1995 15.9565 19.4251 15.6189 19.7095 15.3345C19.9939 15.0501 20.3315 14.8245 20.703 14.6706C21.0746 14.5167 21.4728 14.4375 21.875 14.4375C22.6872 14.4375 23.4662 14.7602 24.0405 15.3345C24.6148 15.9088 24.9375 16.6878 24.9375 17.5C24.9375 18.3122 24.6148 19.0912 24.0405 19.6655C23.4662 20.2398 22.6872 20.5625 21.875 20.5625ZM37.1875 17.5C37.1875 18.3122 36.8648 19.0912 36.2905 19.6655C35.7162 20.2398 34.9372 20.5625 34.125 20.5625C33.3128 20.5625 32.5338 20.2398 31.9595 19.6655C31.3852 19.0912 31.0625 18.3122 31.0625 17.5C31.0625 16.6878 31.3852 15.9088 31.9595 15.3345C32.5338 14.7602 33.3128 14.4375 34.125 14.4375C34.9372 14.4375 35.7162 14.7602 36.2905 15.3345C36.8648 15.9088 37.1875 16.6878 37.1875 17.5Z" fill="#0056C1"/>
<path d="M99.488 44H91.136V19.088H79.664V44H71.36V11.984H99.488V44ZM140.076 28.016C140.076 32.24 138.444 36.704 135.036 39.968C131.772 43.088 127.164 44.72 122.412 44.72C117.66 44.72 113.052 43.088 109.788 39.968C106.38 36.704 104.748 32.24 104.748 28.016C104.748 23.744 106.38 19.232 109.788 16.016C113.052 12.896 117.66 11.264 122.412 11.264C127.164 11.264 131.772 12.896 135.036 16.016C138.444 19.232 140.076 23.744 140.076 28.016ZM122.412 19.328C120.108 19.328 117.66 20.144 115.932 21.872C114.204 23.552 113.388 25.904 113.388 28.16C113.388 30.992 114.732 32.96 115.932 34.112C117.468 35.6 119.628 36.656 122.412 36.656C125.244 36.656 127.356 35.648 128.844 34.16C130.332 32.672 131.436 30.464 131.436 28.016C131.436 25.52 130.332 23.312 128.844 21.872C127.068 20.192 124.62 19.328 122.412 19.328ZM152.192 44H143.936L149.36 11.984H157.568L164.048 29.072L170.912 11.984H179.216L184.016 44H175.712L173.36 25.568L165.632 44H162.32L154.928 25.568L152.192 44ZM223.186 28.016C223.186 32.24 221.554 36.704 218.146 39.968C214.882 43.088 210.274 44.72 205.522 44.72C200.77 44.72 196.162 43.088 192.898 39.968C189.49 36.704 187.858 32.24 187.858 28.016C187.858 23.744 189.49 19.232 192.898 16.016C196.162 12.896 200.77 11.264 205.522 11.264C210.274 11.264 214.882 12.896 218.146 16.016C221.554 19.232 223.186 23.744 223.186 28.016ZM205.522 19.328C203.218 19.328 200.77 20.144 199.042 21.872C197.314 23.552 196.498 25.904 196.498 28.16C196.498 30.992 197.842 32.96 199.042 34.112C200.578 35.6 202.738 36.656 205.522 36.656C208.354 36.656 210.466 35.648 211.954 34.16C213.442 32.672 214.546 30.464 214.546 28.016C214.546 25.52 213.442 23.312 211.954 21.872C210.177 20.192 207.73 19.328 205.522 19.328ZM266.693 44H228.485V11.984H236.837V36.992H244.901V11.984H253.253V36.992H261.317V11.984H269.669V36.992H274.181V51.2H266.693V44ZM286.57 11.984V23.936H298.57V11.984H306.922V44H298.57V31.04H286.57V44H278.266V11.984H286.57ZM313.657 11.984H322.009V32.144L334.009 11.984H342.505V44H334.153V23.84L322.153 44H313.657V11.984ZM357.539 11.984V25.184L367.715 11.984H377.987L365.267 27.152L379.139 44H368.387L357.539 30.128V44H349.235V11.984H357.539ZM416.758 33.296V43.136C413.446 44.336 411.622 44.72 409.558 44.72C403.99 44.72 399.814 42.512 397.174 39.92C394.054 36.8 392.326 32.432 392.326 28.256C392.326 23.696 394.294 19.376 397.174 16.448C400.006 13.568 404.278 11.456 409.27 11.456C410.806 11.456 413.35 11.696 416.758 13.088V23.024C414.07 19.712 410.902 19.52 409.51 19.52C407.11 19.52 405.286 20.24 403.75 21.632C401.782 23.456 400.966 25.952 400.966 28.208C400.966 30.416 401.878 32.864 403.558 34.448C404.95 35.744 407.158 36.656 409.51 36.656C410.758 36.656 413.83 36.512 416.758 33.296ZM418.672 11.984H427.984L434.08 26.24L439.408 11.984H448.288L433.888 44H425.104L429.568 35.024L418.672 11.984ZM452.297 11.984H476.489V37.568H480.329V51.2H472.841V44H453.353V51.2H445.865V37.568C447.113 37.376 448.313 36.896 449.513 35.648C451.913 33.152 452.297 29.696 452.297 25.136V11.984ZM460.361 18.416V25.952C460.361 27.488 460.265 30.272 459.593 32.672C459.017 34.688 458.153 36.176 456.809 37.568H468.137V18.416H460.361ZM484.657 44V11.984H493.009V24.464H497.041C499.345 24.464 503.761 24.656 506.593 27.44C508.753 29.6 509.137 32.384 509.137 34.208C509.137 37.328 508.129 39.488 506.689 40.928C503.905 43.712 499.537 44 496.561 44H484.657ZM493.009 37.568H496.225C497.137 37.568 498.865 37.568 499.825 36.608C500.353 36.08 500.689 35.216 500.689 34.208C500.689 33.008 500.257 32.288 499.777 31.856C498.865 30.992 497.425 30.896 496.225 30.896H493.009V37.568ZM514.423 11.984H522.775V32.144L534.775 11.984H543.271V44H534.919V23.84L522.919 44H514.423V11.984Z" fill="#0056C1"/>
</svg>
